<svg width="1330" height="624" viewBox="0 0 1330 624" fill="none" xmlns="http://www.w3.org/2000/svg">
<path d="M533 294L534.123 297.455H537.755L534.816 299.59L535.939 303.045L533 300.91L530.061 303.045L531.184 299.59L528.245 297.455H531.877L533 294Z" fill="#FCF9BF"/>
<path d="M487.5 141L489.184 146.182H494.633L490.225 149.385L491.908 154.568L487.5 151.365L483.092 154.568L484.775 149.385L480.367 146.182H485.816L487.5 141Z" fill="#FCF9BF"/>
<path d="M435 227L436.123 230.455H439.755L436.816 232.59L437.939 236.045L435 233.91L432.061 236.045L433.184 232.59L430.245 230.455H433.877L435 227Z" fill="#FCF9BF"/>
<path d="M422.5 171L424.184 176.182H429.633L425.225 179.385L426.908 184.568L422.5 181.365L418.092 184.568L419.775 179.385L415.367 176.182H420.816L422.5 171Z" fill="#FCF9BF"/>
<path d="M755.5 222L757.184 227.182H762.633L758.225 230.385L759.908 235.568L755.5 232.365L751.092 235.568L752.775 230.385L748.367 227.182H753.816L755.5 222Z" fill="#FCF9BF"/>
<path d="M48.5 279L50.1839 284.182H55.6329L51.2245 287.385L52.9084 292.568L48.5 289.365L44.0916 292.568L45.7755 287.385L41.3671 284.182H46.8161L48.5 279Z" fill="#FCF9BF"/>
<path d="M318.5 115L320.184 120.182H325.633L321.225 123.385L322.908 128.568L318.5 125.365L314.092 128.568L315.775 123.385L311.367 120.182H316.816L318.5 115Z" fill="#FCF9BF"/>
<path d="M640 166L641.123 169.455H644.755L641.816 171.59L642.939 175.045L640 172.91L637.061 175.045L638.184 171.59L635.245 169.455H638.877L640 166Z" fill="#FCF9BF"/>
<path d="M410 362L411.123 365.455H414.755L411.816 367.59L412.939 371.045L410 368.91L407.061 371.045L408.184 367.59L405.245 365.455H408.877L410 362Z" fill="#FCF9BF"/>
<path d="M238 318L239.123 321.455H242.755L239.816 323.59L240.939 327.045L238 324.91L235.061 327.045L236.184 323.59L233.245 321.455H236.877L238 318Z" fill="#FCF9BF"/>
<path d="M98 469L99.1226 472.455H102.755L99.8164 474.59L100.939 478.045L98 475.91L95.0611 478.045L96.1836 474.59L93.2447 472.455H96.8774L98 469Z" fill="#FCF9BF"/>
<path d="M390 508L391.123 511.455H394.755L391.816 513.59L392.939 517.045L390 514.91L387.061 517.045L388.184 513.59L385.245 511.455H388.877L390 508Z" fill="#FCF9BF"/>
<path d="M275 438L276.123 441.455H279.755L276.816 443.59L277.939 447.045L275 444.91L272.061 447.045L273.184 443.59L270.245 441.455H273.877L275 438Z" fill="#FCF9BF"/>
<path d="M238 318L239.123 321.455H242.755L239.816 323.59L240.939 327.045L238 324.91L235.061 327.045L236.184 323.59L233.245 321.455H236.877L238 318Z" fill="#FCF9BF"/>
<path d="M1112 151L1113.12 154.455H1116.76L1113.82 156.59L1114.94 160.045L1112 157.91L1109.06 160.045L1110.18 156.59L1107.24 154.455H1110.88L1112 151Z" fill="#FCF9BF"/>
<path d="M321 289L322.123 292.455H325.755L322.816 294.59L323.939 298.045L321 295.91L318.061 298.045L319.184 294.59L316.245 292.455H319.877L321 289Z" fill="#FCF9BF"/>
<path d="M93 367L94.1226 370.455H97.7553L94.8164 372.59L95.9389 376.045L93 373.91L90.0611 376.045L91.1836 372.59L88.2447 370.455H91.8774L93 367Z" fill="#FCF9BF"/>
<path d="M209 542L210.123 545.455H213.755L210.816 547.59L211.939 551.045L209 548.91L206.061 551.045L207.184 547.59L204.245 545.455H207.877L209 542Z" fill="#FCF9BF"/>
<path d="M733 308L734.123 311.455H737.755L734.816 313.59L735.939 317.045L733 314.91L730.061 317.045L731.184 313.59L728.245 311.455H731.877L733 308Z" fill="#FCF9BF"/>
<path d="M670 479L671.123 482.455H674.755L671.816 484.59L672.939 488.045L670 485.91L667.061 488.045L668.184 484.59L665.245 482.455H668.877L670 479Z" fill="#FCF9BF"/>
<path d="M5 433L6.12257 436.455H9.75528L6.81636 438.59L7.93893 442.045L5 439.91L2.06107 442.045L3.18364 438.59L0.244718 436.455H3.87743L5 433Z" fill="#FCF9BF"/>
<path d="M53 614L54.1226 617.455H57.7553L54.8164 619.59L55.9389 623.045L53 620.91L50.0611 623.045L51.1836 619.59L48.2447 617.455H51.8774L53 614Z" fill="#FCF9BF"/>
<path d="M558 46L559.123 49.4549H562.755L559.816 51.5902L560.939 55.0451L558 52.9098L555.061 55.0451L556.184 51.5902L553.245 49.4549H556.877L558 46Z" fill="#FCF9BF"/>
<path d="M1325 390L1326.12 393.455H1329.76L1326.82 395.59L1327.94 399.045L1325 396.91L1322.06 399.045L1323.18 395.59L1320.24 393.455H1323.88L1325 390Z" fill="#FCF9BF"/>
<path d="M24 168L25.1226 171.455H28.7553L25.8164 173.59L26.9389 177.045L24 174.91L21.0611 177.045L22.1836 173.59L19.2447 171.455H22.8774L24 168Z" fill="#FCF9BF"/>
<path d="M180 196L181.123 199.455H184.755L181.816 201.59L182.939 205.045L180 202.91L177.061 205.045L178.184 201.59L175.245 199.455H178.877L180 196Z" fill="#FCF9BF"/>
<path d="M306 0L307.123 3.45492H310.755L307.816 5.59017L308.939 9.04508L306 6.90983L303.061 9.04508L304.184 5.59017L301.245 3.45492H304.877L306 0Z" fill="#FCF9BF"/>
<path d="M427 55L428.123 58.4549H431.755L428.816 60.5902L429.939 64.0451L427 61.9098L424.061 64.0451L425.184 60.5902L422.245 58.4549H425.877L427 55Z" fill="#FCF9BF"/>
</svg>
